<?xml version="1.0" standalone="no"?>
<!DOCTYPE svg PUBLIC "-//W3C//DTD SVG 20010904//EN"
 "http://www.w3.org/TR/2001/REC-SVG-20010904/DTD/svg10.dtd">
<svg version="1.0" xmlns="http://www.w3.org/2000/svg"
 width="500.000000pt" height="153.000000pt" viewBox="0 0 500.000000 153.000000"
 preserveAspectRatio="xMidYMid meet">

<g transform="translate(0.000000,153.000000) scale(0.100000,-0.100000)"
fill="#000000" stroke="none">
<path d="M81 1512 c-19 -9 -44 -30 -55 -45 -21 -28 -21 -37 -21 -702 0 -665 0
-674 21 -702 11 -15 36 -36 55 -45 32 -17 121 -18 1439 -18 l1406 0 44 23 c24
12 53 35 64 50 21 28 21 40 24 675 l2 647 -22 45 c-17 33 -35 51 -68 68 l-44
22 -1406 0 c-1318 0 -1407 -1 -1439 -18z m2539 -299 c109 -53 205 -181 218
-289 l5 -44 -46 0 -46 0 -15 53 c-30 102 -102 176 -203 207 l-58 18 -3 47 -3
48 48 -7 c26 -3 73 -18 103 -33z m-1997 -76 l2 -87 -55 0 c-65 0 -76 -6 -85
-43 l-7 -27 71 0 71 0 0 -35 0 -34 37 25 c61 41 133 57 242 52 118 -5 187 -33
255 -104 l46 -48 0 72 0 72 125 0 125 0 0 -41 0 -41 42 36 c23 20 58 41 77 46
58 16 161 12 206 -9 49 -22 104 -82 112 -122 3 -16 8 -29 12 -28 3 0 20 19 36
42 63 86 156 127 290 127 226 0 347 -113 371 -346 l7 -64 -247 0 c-241 0 -246
0 -246 -20 0 -35 29 -79 62 -96 42 -22 121 -14 151 15 21 19 34 21 140 21 132
0 135 -2 89 -66 -44 -60 -95 -100 -158 -124 -160 -59 -347 -23 -451 88 l-43
45 0 -72 0 -71 -130 0 -130 0 0 211 c0 255 -4 269 -86 269 -31 0 -46 -6 -65
-26 -24 -25 -24 -29 -27 -240 l-3 -214 -130 0 -129 0 0 71 0 72 -39 -44 c-127
-144 -397 -158 -544 -28 -70 61 -100 132 -105 246 -3 68 0 106 12 142 9 27 16
51 16 53 0 2 -11 3 -25 3 l-25 0 0 -257 0 -258 -130 0 -130 0 -2 257 -3 256
-50 1 -50 1 -3 83 -3 82 56 0 55 0 0 51 c0 63 22 111 68 149 47 39 94 49 220
47 l104 -2 1 -88z m1955 -90 c42 -28 82 -87 85 -123 2 -28 0 -29 -43 -32 -42
-2 -46 0 -61 30 -8 19 -29 39 -47 47 -29 13 -32 19 -32 56 0 23 3 45 7 49 11
10 53 -2 91 -27z"/>
<path d="M2215 822 c-43 -7 -72 -24 -88 -51 -32 -54 -28 -56 100 -54 116 2
118 2 115 25 -6 50 -69 90 -127 80z"/>
<path d="M817 789 c-31 -18 -47 -73 -47 -157 0 -96 24 -142 80 -155 83 -21
130 35 130 156 0 85 -17 139 -48 156 -26 14 -91 14 -115 0z"/>
</g>
</svg>
